<?xml version="1.0" encoding="UTF-8" standalone="no"?>
<!DOCTYPE svg PUBLIC "-//W3C//DTD SVG 1.1//EN"
 "http://www.w3.org/Graphics/SVG/1.1/DTD/svg11.dtd">
<!-- Generated by graphviz version 2.43.0 (0)
 -->
<!-- Title: %3 Pages: 1 -->
<svg width="194pt" height="188pt"
 viewBox="0.00 0.00 194.49 188.00" xmlns="http://www.w3.org/2000/svg" xmlns:xlink="http://www.w3.org/1999/xlink">
<g id="graph0" class="graph" transform="scale(1 1) rotate(0) translate(4 184)">
<title>%3</title>
<polygon fill="white" stroke="transparent" points="-4,4 -4,-184 190.49,-184 190.49,4 -4,4"/>
<!-- main_0 -->
<g id="node1" class="node">
<title>main_0</title>
<ellipse fill="none" stroke="black" cx="93.25" cy="-162" rx="42.49" ry="18"/>
<text text-anchor="middle" x="93.25" y="-158.3" font-family="Times,serif" font-size="14.00">main.0</text>
</g>
<!-- main_1 -->
<g id="node2" class="node">
<title>main_1</title>
<ellipse fill="none" stroke="black" cx="42.25" cy="-90" rx="42.49" ry="18"/>
<text text-anchor="middle" x="42.25" y="-86.3" font-family="Times,serif" font-size="14.00">main.1</text>
</g>
<!-- main_0&#45;&gt;main_1 -->
<g id="edge1" class="edge">
<title>main_0&#45;&gt;main_1</title>
<path fill="none" stroke="black" d="M81.16,-144.41C74.94,-135.87 67.22,-125.28 60.31,-115.79"/>
<polygon fill="black" stroke="black" points="62.96,-113.49 54.25,-107.47 57.31,-117.61 62.96,-113.49"/>
</g>
<!-- main_2 -->
<g id="node3" class="node">
<title>main_2</title>
<ellipse fill="none" stroke="black" cx="144.25" cy="-90" rx="42.49" ry="18"/>
<text text-anchor="middle" x="144.25" y="-86.3" font-family="Times,serif" font-size="14.00">main.2</text>
</g>
<!-- main_0&#45;&gt;main_2 -->
<g id="edge2" class="edge">
<title>main_0&#45;&gt;main_2</title>
<path fill="none" stroke="black" d="M105.33,-144.41C111.56,-135.87 119.27,-125.28 126.19,-115.79"/>
<polygon fill="black" stroke="black" points="129.19,-117.61 132.25,-107.47 123.53,-113.49 129.19,-117.61"/>
</g>
<!-- main_3 -->
<g id="node4" class="node">
<title>main_3</title>
<ellipse fill="none" stroke="black" cx="93.25" cy="-18" rx="42.49" ry="18"/>
<text text-anchor="middle" x="93.25" y="-14.3" font-family="Times,serif" font-size="14.00">main.3</text>
</g>
<!-- main_1&#45;&gt;main_3 -->
<g id="edge3" class="edge">
<title>main_1&#45;&gt;main_3</title>
<path fill="none" stroke="black" d="M54.33,-72.41C60.56,-63.87 68.27,-53.28 75.19,-43.79"/>
<polygon fill="black" stroke="black" points="78.19,-45.61 81.25,-35.47 72.53,-41.49 78.19,-45.61"/>
</g>
<!-- main_2&#45;&gt;main_3 -->
<g id="edge4" class="edge">
<title>main_2&#45;&gt;main_3</title>
<path fill="none" stroke="black" d="M132.16,-72.41C125.94,-63.87 118.22,-53.28 111.31,-43.79"/>
<polygon fill="black" stroke="black" points="113.96,-41.49 105.25,-35.47 108.31,-45.61 113.96,-41.49"/>
</g>
</g>
</svg>
